<svg width="50" height="50" viewBox="0 0 50 50" fill="none" xmlns="http://www.w3.org/2000/svg">
<g id="Group 22">
<circle id="Ellipse 18" cx="25" cy="25" r="25" fill="url(#paint0_linear_0_295)" fill-opacity="0.15"/>
<g id="Group 24">
<path id="Vector" d="M16.5729 32.5961C16.2089 32.5961 15.859 32.6892 15.5486 32.8639C13.9132 30.7166 13.0156 28.0491 13.0156 25.3164C13.0156 18.5472 18.3918 13.0403 25.0001 13.0403C25.8035 13.0403 26.6065 13.1222 27.3869 13.2838C27.6614 13.3407 27.9296 13.1586 27.9851 12.877C28.0407 12.5954 27.8629 12.321 27.588 12.2639C26.7416 12.0888 25.871 12 25.0001 12C21.5277 12 18.263 13.3852 15.8076 15.9003C13.3523 18.4154 12 21.7595 12 25.3164C12 28.3084 12.9918 31.2283 14.7976 33.569C14.5651 33.9248 14.4401 34.343 14.4401 34.7809C14.4401 35.3644 14.6621 35.913 15.065 36.3255C15.4676 36.7382 16.0032 36.9656 16.5729 36.9656C17.1426 36.9656 17.6782 36.7382 18.0811 36.3255C18.484 35.913 18.7058 35.3642 18.7058 34.7807C18.7058 34.1973 18.484 33.6485 18.0811 33.236C17.6782 32.8233 17.1426 32.5961 16.5729 32.5961ZM17.3628 35.59C17.152 35.8062 16.8713 35.9252 16.5729 35.9252C16.2746 35.9252 15.9941 35.8062 15.783 35.59C15.572 35.3738 15.4557 35.0865 15.4557 34.7809C15.4557 34.4751 15.572 34.1877 15.783 33.9715C15.9939 33.7553 16.2746 33.6365 16.5729 33.6365C16.8713 33.6365 17.1518 33.7556 17.3628 33.9715C17.5739 34.1877 17.6901 34.4751 17.6901 34.7809C17.6901 35.0865 17.5739 35.3738 17.3628 35.59Z" fill="url(#paint1_linear_0_295)"/>
<path id="Vector_2" d="M35.2013 17.0632C35.7534 16.2149 35.6647 15.0551 34.9345 14.3071C34.5316 13.8946 33.996 13.6672 33.4263 13.6672C32.8566 13.6672 32.321 13.8946 31.9182 14.3071C31.5153 14.7198 31.2935 15.2684 31.2935 15.852C31.2935 16.4355 31.5153 16.9842 31.9182 17.3969C32.321 17.8095 32.8566 18.0367 33.4263 18.0367C33.7903 18.0367 34.1403 17.9437 34.4507 17.7689C36.086 19.9165 36.9836 22.5838 36.9836 25.3165C36.9836 32.0857 31.6075 37.5927 24.9991 37.5927C24.2037 37.5927 23.4082 37.5124 22.6352 37.354C22.3603 37.2977 22.0927 37.4803 22.0375 37.762C21.9826 38.0438 22.1609 38.3177 22.4358 38.3742C23.2743 38.5459 24.1368 38.6331 24.9991 38.6331C28.4715 38.6331 31.7362 37.2479 34.1916 34.7327C36.647 32.2176 37.9993 28.8735 37.9993 25.3165C37.9993 22.3243 37.0072 19.4042 35.2013 17.0632ZM32.6364 16.6613C32.4254 16.4451 32.3091 16.1578 32.3091 15.852C32.3091 15.5464 32.4254 15.2591 32.6364 15.0429C32.8473 14.8267 33.128 14.7076 33.4263 14.7076C33.7247 14.7076 34.0054 14.8267 34.2164 15.0429C34.6518 15.4891 34.6518 16.2151 34.2164 16.6613C34.0054 16.8773 33.7247 16.9964 33.4263 16.9964C33.1278 16.9964 32.8473 16.8773 32.6364 16.6613Z" fill="url(#paint2_linear_0_295)"/>
<path id="Vector_3" d="M22.9035 34.2642C22.9035 34.5516 23.1311 34.7844 23.4113 34.7844H26.5866C26.8671 34.7844 27.0944 34.5516 27.0944 34.2642V33.2558C27.7621 33.0717 28.4005 32.8007 29.0003 32.4467L29.6954 33.1587C29.7906 33.2562 29.9198 33.3111 30.0546 33.3111C30.1891 33.3111 30.3185 33.2562 30.4137 33.1585L32.658 30.8579C32.8562 30.6547 32.8562 30.3254 32.658 30.1224L31.9637 29.4112C32.3093 28.7967 32.5739 28.1429 32.7536 27.4589H33.7343C34.0148 27.4589 34.2422 27.2261 34.2422 26.9387V23.6862C34.2422 23.3989 34.0148 23.1661 33.7343 23.1661H32.7534C32.5737 22.4823 32.3093 21.8284 31.9637 21.214L32.6542 20.5067C32.7494 20.4091 32.803 20.2767 32.803 20.1387C32.8028 20.0007 32.7493 19.8682 32.654 19.7707L30.4079 17.4718C30.2098 17.2688 29.8882 17.2688 29.6898 17.472L29.0003 18.1785C28.4005 17.8245 27.7621 17.5535 27.0944 17.3694V16.3703C27.0944 16.083 26.8671 15.8501 26.5866 15.8501H23.4113C23.1311 15.8501 22.9035 16.083 22.9035 16.3703V17.3696C22.236 17.5535 21.5977 17.8245 20.9978 18.1785L20.3081 17.472C20.1099 17.269 19.7884 17.2688 19.59 17.4718L17.3441 19.7709C17.2487 19.8684 17.1951 20.0007 17.1951 20.1387C17.1951 20.2767 17.2487 20.4091 17.3439 20.5067L18.0344 21.214C17.6889 21.8284 17.4242 22.4821 17.2445 23.1661H16.2656C15.9851 23.1661 15.7578 23.3989 15.7578 23.686L15.756 26.9385C15.7558 27.0765 15.8093 27.209 15.9046 27.3065C15.9998 27.4041 16.1289 27.4589 16.2638 27.4589H17.2445C17.4242 28.1429 17.6889 28.7967 18.0344 29.4112L17.3401 30.1224C17.142 30.3254 17.1418 30.6547 17.3401 30.8579L19.5845 33.1585C19.6797 33.256 19.8088 33.3111 19.9435 33.3111H19.9437C20.0784 33.3111 20.2075 33.2562 20.3027 33.1587L20.9976 32.4467C21.5977 32.8007 22.236 33.0717 22.9035 33.2558V34.2642ZM21.1968 31.3527C20.9958 31.2196 20.7314 31.2485 20.562 31.4218L19.9437 32.0551L18.4173 30.4903L19.035 29.8574C19.2042 29.6841 19.2324 29.4132 19.1024 29.2074C18.642 28.4775 18.3183 27.6775 18.1405 26.8294C18.0902 26.5899 17.8835 26.4186 17.644 26.4186H16.7718L16.773 24.2064H17.644C17.8835 24.2064 18.0902 24.0353 18.1405 23.7955C18.3183 22.9476 18.642 22.1477 19.1024 21.4178C19.2324 21.212 19.2042 20.9411 19.035 20.7678L18.4212 20.1389L19.9489 18.5753L20.562 19.2036C20.7314 19.3769 20.9956 19.4056 21.1968 19.2727C21.9091 18.8011 22.6901 18.4695 23.5181 18.2874C23.7519 18.2358 23.9192 18.0239 23.9192 17.7788V16.8904H26.0788V17.7786C26.0788 18.0239 26.2458 18.2358 26.4799 18.2872C27.3077 18.4695 28.0888 18.8009 28.8012 19.2725C29.0021 19.4056 29.2665 19.3769 29.4357 19.2034L30.0491 18.5753L31.5767 20.1389L30.963 20.7676C30.7936 20.9411 30.7656 21.212 30.8955 21.4178C31.3559 22.1477 31.6795 22.9476 31.8574 23.7955C31.9076 24.0353 32.1145 24.2064 32.3539 24.2064H33.2265V26.4186H32.3539C32.1145 26.4186 31.9078 26.5899 31.8574 26.8294C31.6797 27.6773 31.3559 28.4775 30.8955 29.2072C30.7656 29.4132 30.7938 29.6841 30.963 29.8574L31.5807 30.4901L30.0542 32.0549L29.4359 31.4218C29.2665 31.2483 29.0021 31.2196 28.8012 31.3527C28.0886 31.8243 27.3077 32.1557 26.4799 32.338C26.2458 32.3896 26.0788 32.6013 26.0788 32.8466V33.7441H23.9192V32.8466C23.9192 32.6015 23.7519 32.3896 23.5181 32.338C22.6903 32.1559 21.9093 31.8243 21.1968 31.3527Z" fill="url(#paint3_linear_0_295)"/>
<path id="Vector_4" d="M29.1968 25.3167C29.1968 22.9466 27.3145 21.0186 25.0007 21.0186C22.687 21.0186 20.8047 22.9466 20.8047 25.3167C20.8047 27.6867 22.687 29.6147 25.0007 29.6147C27.3145 29.6147 29.1968 27.6867 29.1968 25.3167ZM21.8203 25.3167C21.8203 23.5202 23.247 22.0589 25.0007 22.0589C26.7545 22.0589 28.1811 23.5204 28.1811 25.3167C28.1811 27.1129 26.7545 28.5744 25.0007 28.5744C23.247 28.5744 21.8203 27.1131 21.8203 25.3167Z" fill="url(#paint4_linear_0_295)"/>
<path id="Vector_5" d="M29.6751 13.9673C29.8088 13.9673 29.9397 13.9116 30.0341 13.8149C30.1286 13.7176 30.1829 13.5835 30.1829 13.4466C30.1829 13.3105 30.1288 13.1762 30.0341 13.0789C29.9397 12.9822 29.8088 12.9265 29.6751 12.9265C29.541 12.9265 29.4107 12.9822 29.3163 13.0789C29.2216 13.1762 29.1673 13.3099 29.1673 13.4466C29.1673 13.5839 29.2216 13.7176 29.3163 13.8149C29.4107 13.9116 29.541 13.9673 29.6751 13.9673Z" fill="url(#paint5_linear_0_295)"/>
</g>
</g>
<defs>
<linearGradient id="paint0_linear_0_295" x1="50" y1="50" x2="-4.63498" y2="44.2813" gradientUnits="userSpaceOnUse">
<stop stop-color="#F86161"/>
<stop offset="1" stop-color="#FFB23F"/>
</linearGradient>
<linearGradient id="paint1_linear_0_295" x1="27.9953" y1="36.9656" x2="10.4049" y2="35.7859" gradientUnits="userSpaceOnUse">
<stop stop-color="#F86161"/>
<stop offset="1" stop-color="#FFB23F"/>
</linearGradient>
<linearGradient id="paint2_linear_0_295" x1="37.9993" y1="38.6331" x2="20.4346" y2="37.4569" gradientUnits="userSpaceOnUse">
<stop stop-color="#F86161"/>
<stop offset="1" stop-color="#FFB23F"/>
</linearGradient>
<linearGradient id="paint3_linear_0_295" x1="34.2422" y1="34.7844" x2="14.0321" y2="32.7191" gradientUnits="userSpaceOnUse">
<stop stop-color="#F86161"/>
<stop offset="1" stop-color="#FFB23F"/>
</linearGradient>
<linearGradient id="paint4_linear_0_295" x1="29.1968" y1="29.6147" x2="20.0221" y2="28.6772" gradientUnits="userSpaceOnUse">
<stop stop-color="#F86161"/>
<stop offset="1" stop-color="#FFB23F"/>
</linearGradient>
<linearGradient id="paint5_linear_0_295" x1="30.1829" y1="13.9673" x2="29.0726" y2="13.8539" gradientUnits="userSpaceOnUse">
<stop stop-color="#F86161"/>
<stop offset="1" stop-color="#FFB23F"/>
</linearGradient>
</defs>
</svg>
