<svg width="50" height="50" viewBox="0 0 50 50" fill="none" xmlns="http://www.w3.org/2000/svg">
<g id="Group 21">
<circle id="Ellipse 18" cx="25" cy="25" r="25" fill="url(#paint0_linear_0_287)" fill-opacity="0.15"/>
<g id="Group 23">
<path id="Vector" d="M21.5134 28.0645H18.4115C18.126 28.0645 17.8945 27.8273 17.8945 27.5349V18.5325C17.8945 18.24 18.126 18.0029 18.4115 18.0029H21.5134C21.7989 18.0029 22.0304 18.24 22.0304 18.5325V27.5349C22.0304 27.8273 21.7989 28.0645 21.5134 28.0645ZM18.9285 27.0053H20.9964V19.062H18.9285V27.0053Z" fill="url(#paint1_linear_0_287)"/>
<path id="Vector_2" d="M29.7847 28.0652H24.9421C23.6221 28.0665 22.3312 27.6683 21.2314 26.9208C21.0849 26.8225 20.9966 26.6557 20.9961 26.4765V19.5924C20.9961 19.2999 21.2276 19.0628 21.5131 19.0628H22.03C23.4568 19.061 24.6132 17.8768 24.6149 16.4151V14.8264C24.6149 14.534 24.8464 14.2969 25.1319 14.2969H26.1659C27.0224 14.2969 27.7168 15.0082 27.7168 15.8855V18.5333H31.2776C32.097 18.5216 32.7906 19.1494 32.8803 19.9836C32.9219 20.4539 32.7548 20.9183 32.4249 21.2483C32.3481 21.3287 32.2628 21.3995 32.1704 21.46C32.3014 21.6982 32.3701 21.9668 32.3696 22.2401C32.3721 22.6644 32.2053 23.0712 31.9079 23.3665C31.8312 23.4469 31.7458 23.5177 31.6534 23.5782C31.7845 23.8164 31.8531 24.085 31.8526 24.3583C31.8551 24.7826 31.6883 25.1894 31.3909 25.4847C31.3142 25.5651 31.2289 25.6359 31.1365 25.6964C31.2675 25.9346 31.3361 26.2032 31.3356 26.4765C31.3313 27.352 30.6394 28.0608 29.7847 28.0652ZM22.03 26.1843C22.9103 26.7229 23.9167 27.0071 24.9421 27.0061H29.7847C29.9193 27.0074 30.0485 26.9526 30.1429 26.854C30.2444 26.756 30.3019 26.6195 30.3017 26.4765C30.3017 26.1841 30.0702 25.947 29.7847 25.947C29.4992 25.947 29.2677 25.7099 29.2677 25.4174C29.2677 25.125 29.4992 24.8879 29.7847 24.8879H30.3017C30.4362 24.8892 30.5655 24.8344 30.6599 24.7358C30.7614 24.6378 30.8189 24.5013 30.8187 24.3583C30.8187 24.0659 30.5872 23.8288 30.3017 23.8288C30.0162 23.8288 29.7847 23.5917 29.7847 23.2992C29.7847 23.0068 30.0162 22.7697 30.3017 22.7697H30.8187C30.9532 22.771 31.0824 22.7162 31.1769 22.6176C31.2783 22.5196 31.3359 22.3831 31.3356 22.2401C31.3356 21.9477 31.1042 21.7106 30.8187 21.7106C30.5332 21.7106 30.3017 21.4735 30.3017 21.181C30.3017 20.8886 30.5332 20.6515 30.8187 20.6515H31.3356C31.4702 20.6528 31.5994 20.598 31.6938 20.4994C31.8062 20.3901 31.8632 20.2339 31.8488 20.0759C31.8047 19.7902 31.5598 19.5831 31.2776 19.5924H27.1998C26.9143 19.5924 26.6828 19.3553 26.6828 19.0628V15.8855C26.6828 15.5931 26.4514 15.356 26.1659 15.356H25.6489V16.4151C25.6464 18.4611 24.0275 20.1193 22.03 20.1219V26.1843Z" fill="url(#paint2_linear_0_287)"/>
<path id="Vector_3" d="M31.8539 16.7063C31.7125 16.7063 31.5775 16.6471 31.48 16.5426C31.3321 16.3844 31.1789 16.2318 31.0198 16.0844C30.8729 15.9603 30.8047 15.7632 30.8421 15.5719C30.8795 15.3805 31.0168 15.2259 31.199 15.1693C31.3813 15.1127 31.5795 15.1633 31.7143 15.3012C31.8917 15.4654 32.0641 15.636 32.2313 15.8129C32.3734 15.9668 32.412 16.1925 32.33 16.3869C32.2479 16.5814 32.0606 16.7068 31.8539 16.7063Z" fill="url(#paint3_linear_0_287)"/>
<path id="Vector_4" d="M37.8732 23.9007C37.6963 23.5441 37.5834 23.1578 37.5403 22.7604C37.5832 22.379 37.6925 22.0085 37.8629 21.6664C38.1847 21.0655 38.314 20.3761 38.2324 19.6961C38.0171 19.0471 37.6082 18.4841 37.0632 18.0867C36.764 17.8545 36.5083 17.5693 36.3079 17.2446C36.1781 16.8678 36.1158 16.4701 36.1236 16.0706C36.1574 15.4017 35.9865 14.739 35.6352 14.1743C35.1704 13.6928 34.5704 13.3722 33.9189 13.2576C33.5443 13.1801 33.1863 13.0342 32.8622 12.8271C32.5896 12.5481 32.3682 12.2213 32.2082 11.8621C31.9537 11.24 31.5163 10.7143 30.9566 10.3588C30.3384 10.1331 29.6672 10.1103 29.0359 10.2942C28.6603 10.3911 28.2705 10.418 27.8858 10.373C27.5274 10.2442 27.1947 10.0506 26.9034 9.80131C26.4063 9.35062 25.7838 9.07033 25.1235 9C24.478 9.0693 23.8702 9.34571 23.387 9.78968C23.0838 10.049 22.7372 10.2499 22.3639 10.3821C21.9714 10.4283 21.5743 10.402 21.1909 10.3048C20.5674 10.1204 19.9027 10.1424 19.2921 10.3673C18.7256 10.7252 18.2836 11.2566 18.0284 11.8862C17.8727 12.2404 17.6561 12.5631 17.389 12.8393C17.0616 13.0513 16.6996 13.201 16.3205 13.2814C15.6735 13.3947 15.077 13.7122 14.6148 14.1895C14.2619 14.7589 14.091 15.4268 14.1263 16.1004C14.1354 16.4947 14.0748 16.8877 13.9474 17.2601C13.7437 17.5913 13.4834 17.8822 13.1792 18.1196C12.6408 18.5121 12.2359 19.0677 12.0218 19.7082C11.9448 20.3728 12.0726 21.0456 12.3874 21.632C12.5656 21.9896 12.6792 22.3772 12.7228 22.7764C12.6797 23.1578 12.5706 23.5284 12.4002 23.8705C12.0776 24.4706 11.9474 25.1597 12.0279 25.8397C12.2432 26.4888 12.6524 27.0517 13.1974 27.4491C13.4963 27.6813 13.752 27.9665 13.9527 28.2913C14.0822 28.668 14.1445 29.0657 14.1367 29.4652C14.1029 30.1338 14.2738 30.7968 14.6251 31.3615C14.7928 31.5699 15 31.7411 15.2343 31.8652L12.761 36.2509C12.6688 36.4143 12.6686 36.6157 12.7604 36.7796C12.8523 36.9433 13.0222 37.0444 13.2067 37.0452L17.0778 37.0664L19.0298 40.4894C19.1222 40.653 19.2926 40.7541 19.4771 40.7541C19.6614 40.7539 19.8315 40.653 19.9237 40.4894L22.8158 35.3634C22.9899 35.4692 23.1709 35.6 23.358 35.7379C23.855 36.1896 24.4777 36.4707 25.1384 36.5415H25.1411C25.7866 36.4722 26.3942 36.1958 26.8776 35.7521C27.0735 35.6081 27.2628 35.4708 27.4463 35.3611L30.3415 40.4894C30.4336 40.653 30.6037 40.7539 30.788 40.7541C30.9725 40.7541 31.1429 40.653 31.2353 40.4894L33.1826 37.0664L37.0538 37.0467C37.2381 37.046 37.408 36.9449 37.4999 36.7812C37.5918 36.6175 37.5915 36.4161 37.4994 36.2524L35.022 31.8572C35.2621 31.7331 35.4744 31.5596 35.6455 31.3473C35.9987 30.7779 36.1693 30.11 36.134 29.4365C36.1251 29.0421 36.1857 28.6491 36.3129 28.2768C36.5169 27.9455 36.7769 27.6547 37.0811 27.4173C37.62 27.024 38.0247 26.4675 38.2387 25.826C38.316 25.161 38.1882 24.4877 37.8732 23.9007ZM19.4723 39.1683L17.8222 36.2721C17.7305 36.1094 17.5614 36.0086 17.3782 36.0073L14.1021 35.991L16.2165 32.2422L16.3432 32.2792C16.7178 32.3568 17.0755 32.5026 17.3999 32.7097C17.6725 32.9895 17.8941 33.3174 18.0539 33.6773C18.3081 34.2997 18.7456 34.8251 19.3055 35.1806C19.9234 35.4061 20.5949 35.4286 21.2259 35.2453C21.4011 35.2135 21.5698 35.1856 21.7321 35.1649L19.4723 39.1683ZM36.1585 35.991L32.8849 36.0073C32.7014 36.0086 32.5325 36.1094 32.4407 36.2721L30.7905 39.1704L28.5232 35.1509C28.6994 35.1716 28.8849 35.2039 29.0748 35.2367C29.6983 35.4211 30.3629 35.3994 30.9735 35.1742C31.5397 34.8163 31.9817 34.2849 32.2372 33.6556C32.393 33.3013 32.6095 32.9784 32.8766 32.7022C33.204 32.4905 33.566 32.3405 33.9451 32.2601L34.0418 32.2316L36.1585 35.991ZM37.231 25.5889C37.0513 26.0052 36.7628 26.3628 36.3973 26.6219C35.9845 26.9472 35.6392 27.3532 35.3807 27.8163C35.1876 28.3138 35.0924 28.8459 35.101 29.3814C35.1311 29.8331 35.0392 30.2843 34.836 30.6864C34.501 30.9778 34.0943 31.1699 33.6604 31.2413C33.1467 31.3538 32.6598 31.5697 32.2284 31.8769C31.849 32.2355 31.5425 32.6673 31.3267 33.1477C31.1608 33.5736 30.8827 33.9439 30.5232 34.2175C30.1044 34.3266 29.6647 34.3175 29.2504 34.1908C28.7327 34.0621 28.195 34.0396 27.6685 34.1246C27.1583 34.2824 26.684 34.5422 26.2728 34.8895C25.9527 35.1881 25.5597 35.3921 25.1353 35.4803C24.6958 35.3937 24.2884 35.184 23.9577 34.875C23.5592 34.5386 23.0992 34.2868 22.6047 34.1337C22.4336 34.0949 22.2589 34.076 22.0837 34.0776C21.7351 34.0884 21.3883 34.1295 21.0467 34.2009C20.6259 34.3297 20.1791 34.3382 19.7543 34.226C19.3996 33.954 19.125 33.5876 18.9596 33.1669C18.7403 32.6803 18.4288 32.243 18.0431 31.881C17.6139 31.5795 17.131 31.3683 16.6219 31.2594C16.1826 31.1891 15.7712 30.9957 15.4327 30.7006C15.2317 30.3035 15.1406 29.8577 15.1691 29.4111C15.1772 28.871 15.0805 28.3342 14.8846 27.8325C14.6292 27.3762 14.2882 26.9764 13.8807 26.6558C13.5089 26.3928 13.2161 26.0285 13.0356 25.6042C13.0182 25.1416 13.1272 24.6829 13.3504 24.2803C13.5811 23.8107 13.7184 23.2988 13.754 22.7744C13.7174 22.2352 13.5768 21.7091 13.3405 21.2258C13.1257 20.8364 13.0187 20.3945 13.0303 19.9474C13.21 19.5311 13.4988 19.1735 13.8643 18.9144C14.2768 18.5891 14.6224 18.1832 14.8806 17.7201C15.074 17.2223 15.1689 16.6904 15.1603 16.1549C15.1305 15.7032 15.2221 15.2517 15.4256 14.8499C15.7603 14.5588 16.1665 14.3669 16.6002 14.2955C17.1139 14.1831 17.6005 13.9672 18.0322 13.66C18.4113 13.3013 18.7178 12.8695 18.9336 12.3891C19.0997 11.9632 19.3777 11.593 19.7371 11.3194C20.1559 11.2105 20.5956 11.2196 21.0099 11.346C21.5279 11.475 22.0655 11.4975 22.5918 11.4122C23.102 11.2545 23.5766 10.9946 23.9878 10.6474C24.3074 10.3503 24.6994 10.147 25.1225 10.0591C25.5619 10.146 25.9696 10.3554 26.3 10.6644C26.6989 11.0008 27.1586 11.2527 27.6531 11.4058C28.1728 11.4895 28.7034 11.4665 29.2143 11.338C29.6349 11.209 30.0817 11.2004 30.5068 11.3132C30.8612 11.5849 31.1361 11.9513 31.3014 12.3723C31.5206 12.8589 31.8323 13.2959 32.218 13.6579C32.6469 13.9594 33.13 14.1707 33.6392 14.2798C34.0782 14.3498 34.4896 14.5433 34.8281 14.8383C35.0291 15.2355 35.1202 15.6815 35.0919 16.1278C35.0836 16.6682 35.1803 17.2047 35.3762 17.7064C35.6316 18.1627 35.9729 18.5628 36.3801 18.8831C36.7522 19.1453 37.0457 19.5086 37.2275 19.9322C37.2449 20.3947 37.1359 20.8532 36.9127 21.256C36.682 21.7256 36.5447 22.2376 36.5088 22.762C36.5457 23.3011 36.686 23.8273 36.9226 24.3105C37.1366 24.7 37.2434 25.1419 37.231 25.5889Z" fill="url(#paint4_linear_0_287)"/>
<path id="Vector_5" d="M32.6333 17.1035C32.3948 17.2641 32.3281 17.5925 32.4849 17.8371C34.9228 21.6558 34.1835 26.7391 30.7646 29.6639C27.3459 32.5886 22.3309 32.4278 19.0972 29.2897C15.8636 26.1519 15.436 21.0308 18.1022 17.3758C20.7686 13.7208 25.6842 12.6899 29.5383 14.9775C29.6986 15.0859 29.904 15.0944 30.0724 14.9995C30.2405 14.9049 30.3438 14.7223 30.34 14.5258C30.3364 14.329 30.2269 14.1506 30.0552 14.0624C25.7437 11.5077 20.2481 12.6646 17.2697 16.7537C14.291 20.8428 14.7734 26.5687 18.392 30.0747C22.0103 33.5808 27.6183 33.7561 31.4386 30.4825C35.2591 27.2089 36.0813 21.5236 33.3515 17.2561C33.2762 17.1379 33.1581 17.0554 33.0233 17.027C32.8885 16.9983 32.7482 17.026 32.6333 17.1035Z" fill="url(#paint5_linear_0_287)"/>
</g>
</g>
<defs>
<linearGradient id="paint0_linear_0_287" x1="50" y1="50" x2="-4.63498" y2="44.2813" gradientUnits="userSpaceOnUse">
<stop stop-color="#F86161"/>
<stop offset="1" stop-color="#FFB23F"/>
</linearGradient>
<linearGradient id="paint1_linear_0_287" x1="22.0304" y1="28.0645" x2="17.4701" y2="27.8682" gradientUnits="userSpaceOnUse">
<stop stop-color="#F86161"/>
<stop offset="1" stop-color="#FFB23F"/>
</linearGradient>
<linearGradient id="paint2_linear_0_287" x1="32.8865" y1="28.0652" x2="19.858" y2="26.8875" gradientUnits="userSpaceOnUse">
<stop stop-color="#F86161"/>
<stop offset="1" stop-color="#FFB23F"/>
</linearGradient>
<linearGradient id="paint3_linear_0_287" x1="32.3725" y1="16.7063" x2="30.6888" y2="16.5322" gradientUnits="userSpaceOnUse">
<stop stop-color="#F86161"/>
<stop offset="1" stop-color="#FFB23F"/>
</linearGradient>
<linearGradient id="paint4_linear_0_287" x1="38.2607" y1="40.7542" x2="9.46702" y2="38.2617" gradientUnits="userSpaceOnUse">
<stop stop-color="#F86161"/>
<stop offset="1" stop-color="#FFB23F"/>
</linearGradient>
<linearGradient id="paint5_linear_0_287" x1="34.9578" y1="32.8257" x2="13.489" y2="30.6319" gradientUnits="userSpaceOnUse">
<stop stop-color="#F86161"/>
<stop offset="1" stop-color="#FFB23F"/>
</linearGradient>
</defs>
</svg>
